<mxfile host="Electron" modified="2023-07-05T01:59:14.274Z" agent="Mozilla/5.0 (Windows NT 10.0; Win64; x64) AppleWebKit/537.36 (KHTML, like Gecko) draw.io/21.3.7 Chrome/112.0.5615.204 Electron/24.5.0 Safari/537.36" etag="0VOz-giAif7KOP8VPfZb" version="21.3.7" type="device">
  <diagram id="h3jQZG8nck5NfjddVuUN" name="无线击剑判别系统">
    <mxGraphModel dx="1034" dy="604" grid="1" gridSize="10" guides="0" tooltips="1" connect="1" arrows="1" fold="1" page="1" pageScale="1" pageWidth="1600" pageHeight="900" math="0" shadow="0">
      <root>
        <mxCell id="0" />
        <mxCell id="1" parent="0" />
        <mxCell id="edpnZ5Cil1vbVrSWlnmC-1" value="" style="rounded=0;whiteSpace=wrap;html=1;fontFamily=Sarasa Fixed SC;fontStyle=1" parent="1" vertex="1">
          <mxGeometry x="540" y="120" width="10" height="80" as="geometry" />
        </mxCell>
        <mxCell id="edpnZ5Cil1vbVrSWlnmC-4" value="" style="rounded=0;whiteSpace=wrap;html=1;fontFamily=Sarasa Fixed SC;fontStyle=1" parent="1" vertex="1">
          <mxGeometry x="320" y="120" width="10" height="80" as="geometry" />
        </mxCell>
        <mxCell id="edpnZ5Cil1vbVrSWlnmC-5" value="" style="endArrow=none;html=1;rounded=0;fontFamily=Sarasa Fixed SC;fontStyle=1;entryX=0;entryY=0.25;entryDx=0;entryDy=0;" parent="1" target="edpnZ5Cil1vbVrSWlnmC-4" edge="1">
          <mxGeometry width="50" height="50" relative="1" as="geometry">
            <mxPoint x="160" y="140" as="sourcePoint" />
            <mxPoint x="310" y="140" as="targetPoint" />
          </mxGeometry>
        </mxCell>
        <mxCell id="edpnZ5Cil1vbVrSWlnmC-6" value="" style="endArrow=none;html=1;rounded=0;fontFamily=Sarasa Fixed SC;fontStyle=1;entryX=0;entryY=0.75;entryDx=0;entryDy=0;" parent="1" target="edpnZ5Cil1vbVrSWlnmC-4" edge="1">
          <mxGeometry width="50" height="50" relative="1" as="geometry">
            <mxPoint x="160" y="180" as="sourcePoint" />
            <mxPoint x="310" y="180" as="targetPoint" />
          </mxGeometry>
        </mxCell>
        <mxCell id="edpnZ5Cil1vbVrSWlnmC-7" value="" style="endArrow=none;html=1;rounded=0;entryX=0;entryY=0.5;entryDx=0;entryDy=0;fontFamily=Sarasa Fixed SC;fontStyle=1" parent="1" target="edpnZ5Cil1vbVrSWlnmC-8" edge="1">
          <mxGeometry width="50" height="50" relative="1" as="geometry">
            <mxPoint x="160" y="260" as="sourcePoint" />
            <mxPoint x="310" y="260" as="targetPoint" />
          </mxGeometry>
        </mxCell>
        <mxCell id="edpnZ5Cil1vbVrSWlnmC-8" value="" style="rounded=0;whiteSpace=wrap;html=1;fontFamily=Sarasa Fixed SC;fontStyle=1" parent="1" vertex="1">
          <mxGeometry x="320" y="240" width="10" height="40" as="geometry" />
        </mxCell>
        <mxCell id="edpnZ5Cil1vbVrSWlnmC-9" value="" style="rounded=0;whiteSpace=wrap;html=1;fontFamily=Sarasa Fixed SC;fontStyle=1" parent="1" vertex="1">
          <mxGeometry x="540" y="240" width="10" height="40" as="geometry" />
        </mxCell>
        <mxCell id="edpnZ5Cil1vbVrSWlnmC-97" value="" style="endArrow=none;html=1;rounded=0;fontFamily=Sarasa Fixed SC;fontStyle=1" parent="1" edge="1">
          <mxGeometry width="50" height="50" relative="1" as="geometry">
            <mxPoint x="160" y="300" as="sourcePoint" />
            <mxPoint x="170" y="300" as="targetPoint" />
          </mxGeometry>
        </mxCell>
        <mxCell id="edpnZ5Cil1vbVrSWlnmC-98" value="" style="endArrow=none;html=1;rounded=0;fontFamily=Sarasa Fixed SC;fontStyle=1" parent="1" edge="1">
          <mxGeometry width="50" height="50" relative="1" as="geometry">
            <mxPoint x="170" y="270" as="sourcePoint" />
            <mxPoint x="180" y="270" as="targetPoint" />
          </mxGeometry>
        </mxCell>
        <mxCell id="edpnZ5Cil1vbVrSWlnmC-99" value="" style="endArrow=none;html=1;rounded=0;fontFamily=Sarasa Fixed SC;fontStyle=1" parent="1" edge="1">
          <mxGeometry width="50" height="50" relative="1" as="geometry">
            <mxPoint x="190" y="300" as="sourcePoint" />
            <mxPoint x="180" y="300" as="targetPoint" />
          </mxGeometry>
        </mxCell>
        <mxCell id="edpnZ5Cil1vbVrSWlnmC-100" value="" style="endArrow=none;html=1;rounded=0;fontFamily=Sarasa Fixed SC;fontStyle=1" parent="1" edge="1">
          <mxGeometry width="50" height="50" relative="1" as="geometry">
            <mxPoint x="180" y="270" as="sourcePoint" />
            <mxPoint x="180" y="300" as="targetPoint" />
          </mxGeometry>
        </mxCell>
        <mxCell id="edpnZ5Cil1vbVrSWlnmC-101" value="" style="endArrow=none;html=1;rounded=0;fontFamily=Sarasa Fixed SC;fontStyle=1" parent="1" edge="1">
          <mxGeometry width="50" height="50" relative="1" as="geometry">
            <mxPoint x="170" y="270" as="sourcePoint" />
            <mxPoint x="170" y="300" as="targetPoint" />
          </mxGeometry>
        </mxCell>
        <mxCell id="edpnZ5Cil1vbVrSWlnmC-102" value="" style="endArrow=none;html=1;rounded=0;fontFamily=Sarasa Fixed SC;fontStyle=1" parent="1" edge="1">
          <mxGeometry width="50" height="50" relative="1" as="geometry">
            <mxPoint x="190" y="270" as="sourcePoint" />
            <mxPoint x="200" y="270" as="targetPoint" />
          </mxGeometry>
        </mxCell>
        <mxCell id="edpnZ5Cil1vbVrSWlnmC-103" value="" style="endArrow=none;html=1;rounded=0;fontFamily=Sarasa Fixed SC;fontStyle=1" parent="1" edge="1">
          <mxGeometry width="50" height="50" relative="1" as="geometry">
            <mxPoint x="210" y="300" as="sourcePoint" />
            <mxPoint x="200" y="300" as="targetPoint" />
          </mxGeometry>
        </mxCell>
        <mxCell id="edpnZ5Cil1vbVrSWlnmC-104" value="" style="endArrow=none;html=1;rounded=0;fontFamily=Sarasa Fixed SC;fontStyle=1" parent="1" edge="1">
          <mxGeometry width="50" height="50" relative="1" as="geometry">
            <mxPoint x="200" y="270" as="sourcePoint" />
            <mxPoint x="200" y="300" as="targetPoint" />
          </mxGeometry>
        </mxCell>
        <mxCell id="edpnZ5Cil1vbVrSWlnmC-105" value="" style="endArrow=none;html=1;rounded=0;fontFamily=Sarasa Fixed SC;fontStyle=1" parent="1" edge="1">
          <mxGeometry width="50" height="50" relative="1" as="geometry">
            <mxPoint x="190" y="270" as="sourcePoint" />
            <mxPoint x="190" y="300" as="targetPoint" />
          </mxGeometry>
        </mxCell>
        <mxCell id="edpnZ5Cil1vbVrSWlnmC-106" value="" style="endArrow=none;html=1;rounded=0;fontFamily=Sarasa Fixed SC;fontStyle=1" parent="1" edge="1">
          <mxGeometry width="50" height="50" relative="1" as="geometry">
            <mxPoint x="210" y="270" as="sourcePoint" />
            <mxPoint x="220" y="270" as="targetPoint" />
          </mxGeometry>
        </mxCell>
        <mxCell id="edpnZ5Cil1vbVrSWlnmC-107" value="" style="endArrow=none;html=1;rounded=0;fontFamily=Sarasa Fixed SC;fontStyle=1" parent="1" edge="1">
          <mxGeometry width="50" height="50" relative="1" as="geometry">
            <mxPoint x="230" y="300" as="sourcePoint" />
            <mxPoint x="220" y="300" as="targetPoint" />
          </mxGeometry>
        </mxCell>
        <mxCell id="edpnZ5Cil1vbVrSWlnmC-108" value="" style="endArrow=none;html=1;rounded=0;fontFamily=Sarasa Fixed SC;fontStyle=1" parent="1" edge="1">
          <mxGeometry width="50" height="50" relative="1" as="geometry">
            <mxPoint x="220" y="270" as="sourcePoint" />
            <mxPoint x="220" y="300" as="targetPoint" />
          </mxGeometry>
        </mxCell>
        <mxCell id="edpnZ5Cil1vbVrSWlnmC-109" value="" style="endArrow=none;html=1;rounded=0;fontFamily=Sarasa Fixed SC;fontStyle=1" parent="1" edge="1">
          <mxGeometry width="50" height="50" relative="1" as="geometry">
            <mxPoint x="210" y="270" as="sourcePoint" />
            <mxPoint x="210" y="300" as="targetPoint" />
          </mxGeometry>
        </mxCell>
        <mxCell id="edpnZ5Cil1vbVrSWlnmC-110" value="" style="endArrow=none;html=1;rounded=0;fontFamily=Sarasa Fixed SC;fontStyle=1" parent="1" edge="1">
          <mxGeometry width="50" height="50" relative="1" as="geometry">
            <mxPoint x="230" y="270" as="sourcePoint" />
            <mxPoint x="240" y="270" as="targetPoint" />
          </mxGeometry>
        </mxCell>
        <mxCell id="edpnZ5Cil1vbVrSWlnmC-111" value="" style="endArrow=none;html=1;rounded=0;fontFamily=Sarasa Fixed SC;fontStyle=1" parent="1" edge="1">
          <mxGeometry width="50" height="50" relative="1" as="geometry">
            <mxPoint x="250" y="300" as="sourcePoint" />
            <mxPoint x="240" y="300" as="targetPoint" />
          </mxGeometry>
        </mxCell>
        <mxCell id="edpnZ5Cil1vbVrSWlnmC-112" value="" style="endArrow=none;html=1;rounded=0;fontFamily=Sarasa Fixed SC;fontStyle=1" parent="1" edge="1">
          <mxGeometry width="50" height="50" relative="1" as="geometry">
            <mxPoint x="240" y="270" as="sourcePoint" />
            <mxPoint x="240" y="300" as="targetPoint" />
          </mxGeometry>
        </mxCell>
        <mxCell id="edpnZ5Cil1vbVrSWlnmC-113" value="" style="endArrow=none;html=1;rounded=0;fontFamily=Sarasa Fixed SC;fontStyle=1" parent="1" edge="1">
          <mxGeometry width="50" height="50" relative="1" as="geometry">
            <mxPoint x="230" y="270" as="sourcePoint" />
            <mxPoint x="230" y="300" as="targetPoint" />
          </mxGeometry>
        </mxCell>
        <mxCell id="edpnZ5Cil1vbVrSWlnmC-114" value="" style="endArrow=none;html=1;rounded=0;fontFamily=Sarasa Fixed SC;fontStyle=1" parent="1" edge="1">
          <mxGeometry width="50" height="50" relative="1" as="geometry">
            <mxPoint x="250" y="270" as="sourcePoint" />
            <mxPoint x="260" y="270" as="targetPoint" />
          </mxGeometry>
        </mxCell>
        <mxCell id="edpnZ5Cil1vbVrSWlnmC-115" value="" style="endArrow=none;html=1;rounded=0;fontFamily=Sarasa Fixed SC;fontStyle=1" parent="1" edge="1">
          <mxGeometry width="50" height="50" relative="1" as="geometry">
            <mxPoint x="270" y="300" as="sourcePoint" />
            <mxPoint x="260" y="300" as="targetPoint" />
          </mxGeometry>
        </mxCell>
        <mxCell id="edpnZ5Cil1vbVrSWlnmC-116" value="" style="endArrow=none;html=1;rounded=0;fontFamily=Sarasa Fixed SC;fontStyle=1" parent="1" edge="1">
          <mxGeometry width="50" height="50" relative="1" as="geometry">
            <mxPoint x="260" y="270" as="sourcePoint" />
            <mxPoint x="260" y="300" as="targetPoint" />
          </mxGeometry>
        </mxCell>
        <mxCell id="edpnZ5Cil1vbVrSWlnmC-117" value="" style="endArrow=none;html=1;rounded=0;fontFamily=Sarasa Fixed SC;fontStyle=1" parent="1" edge="1">
          <mxGeometry width="50" height="50" relative="1" as="geometry">
            <mxPoint x="250" y="270" as="sourcePoint" />
            <mxPoint x="250" y="300" as="targetPoint" />
          </mxGeometry>
        </mxCell>
        <mxCell id="edpnZ5Cil1vbVrSWlnmC-118" value="" style="endArrow=none;html=1;rounded=0;fontFamily=Sarasa Fixed SC;fontStyle=1" parent="1" edge="1">
          <mxGeometry width="50" height="50" relative="1" as="geometry">
            <mxPoint x="270" y="270" as="sourcePoint" />
            <mxPoint x="280" y="270" as="targetPoint" />
          </mxGeometry>
        </mxCell>
        <mxCell id="edpnZ5Cil1vbVrSWlnmC-119" value="" style="endArrow=none;html=1;rounded=0;fontFamily=Sarasa Fixed SC;fontStyle=1" parent="1" edge="1">
          <mxGeometry width="50" height="50" relative="1" as="geometry">
            <mxPoint x="290" y="300" as="sourcePoint" />
            <mxPoint x="280" y="300" as="targetPoint" />
          </mxGeometry>
        </mxCell>
        <mxCell id="edpnZ5Cil1vbVrSWlnmC-120" value="" style="endArrow=none;html=1;rounded=0;fontFamily=Sarasa Fixed SC;fontStyle=1" parent="1" edge="1">
          <mxGeometry width="50" height="50" relative="1" as="geometry">
            <mxPoint x="280" y="270" as="sourcePoint" />
            <mxPoint x="280" y="300" as="targetPoint" />
          </mxGeometry>
        </mxCell>
        <mxCell id="edpnZ5Cil1vbVrSWlnmC-121" value="" style="endArrow=none;html=1;rounded=0;fontFamily=Sarasa Fixed SC;fontStyle=1" parent="1" edge="1">
          <mxGeometry width="50" height="50" relative="1" as="geometry">
            <mxPoint x="270" y="270" as="sourcePoint" />
            <mxPoint x="270" y="300" as="targetPoint" />
          </mxGeometry>
        </mxCell>
        <mxCell id="edpnZ5Cil1vbVrSWlnmC-122" value="" style="endArrow=none;html=1;rounded=0;exitX=1;exitY=0.25;exitDx=0;exitDy=0;fontFamily=Sarasa Fixed SC;fontStyle=1" parent="1" source="edpnZ5Cil1vbVrSWlnmC-1" edge="1">
          <mxGeometry width="50" height="50" relative="1" as="geometry">
            <mxPoint x="560" y="140" as="sourcePoint" />
            <mxPoint x="710" y="140" as="targetPoint" />
          </mxGeometry>
        </mxCell>
        <mxCell id="edpnZ5Cil1vbVrSWlnmC-123" value="" style="endArrow=none;html=1;rounded=0;exitX=1;exitY=0.75;exitDx=0;exitDy=0;fontFamily=Sarasa Fixed SC;fontStyle=1" parent="1" source="edpnZ5Cil1vbVrSWlnmC-1" edge="1">
          <mxGeometry width="50" height="50" relative="1" as="geometry">
            <mxPoint x="560" y="180" as="sourcePoint" />
            <mxPoint x="710" y="180" as="targetPoint" />
          </mxGeometry>
        </mxCell>
        <mxCell id="edpnZ5Cil1vbVrSWlnmC-124" value="" style="endArrow=none;html=1;rounded=0;fontFamily=Sarasa Fixed SC;fontStyle=1" parent="1" source="edpnZ5Cil1vbVrSWlnmC-9" edge="1">
          <mxGeometry width="50" height="50" relative="1" as="geometry">
            <mxPoint x="570" y="250" as="sourcePoint" />
            <mxPoint x="710" y="260" as="targetPoint" />
          </mxGeometry>
        </mxCell>
        <mxCell id="edpnZ5Cil1vbVrSWlnmC-150" value="" style="endArrow=none;html=1;rounded=0;entryX=0;entryY=0.5;entryDx=0;entryDy=0;exitX=1;exitY=0.5;exitDx=0;exitDy=0;fontFamily=Sarasa Fixed SC;fontStyle=1" parent="1" source="edpnZ5Cil1vbVrSWlnmC-8" target="edpnZ5Cil1vbVrSWlnmC-1" edge="1">
          <mxGeometry width="50" height="50" relative="1" as="geometry">
            <mxPoint x="400" y="250" as="sourcePoint" />
            <mxPoint x="450" y="200" as="targetPoint" />
          </mxGeometry>
        </mxCell>
        <mxCell id="edpnZ5Cil1vbVrSWlnmC-151" value="" style="triangle;whiteSpace=wrap;html=1;fontFamily=Sarasa Fixed SC;fontStyle=1" parent="1" vertex="1">
          <mxGeometry x="710" y="130" width="30" height="20" as="geometry" />
        </mxCell>
        <mxCell id="edpnZ5Cil1vbVrSWlnmC-155" style="edgeStyle=orthogonalEdgeStyle;rounded=0;orthogonalLoop=1;jettySize=auto;html=1;entryX=0;entryY=0.25;entryDx=0;entryDy=0;fontFamily=Sarasa Fixed SC;fontStyle=1" parent="1" source="edpnZ5Cil1vbVrSWlnmC-152" target="edpnZ5Cil1vbVrSWlnmC-154" edge="1">
          <mxGeometry relative="1" as="geometry">
            <mxPoint x="790" y="140" as="targetPoint" />
          </mxGeometry>
        </mxCell>
        <mxCell id="edpnZ5Cil1vbVrSWlnmC-152" value="" style="ellipse;whiteSpace=wrap;html=1;aspect=fixed;fontFamily=Sarasa Fixed SC;fontStyle=1" parent="1" vertex="1">
          <mxGeometry x="740" y="135" width="10" height="10" as="geometry" />
        </mxCell>
        <mxCell id="edpnZ5Cil1vbVrSWlnmC-153" value="" style="shape=umlActor;verticalLabelPosition=bottom;verticalAlign=top;html=1;fontFamily=Sarasa Fixed SC;fontStyle=1" parent="1" vertex="1">
          <mxGeometry x="310" y="40" width="30" height="60" as="geometry" />
        </mxCell>
        <mxCell id="edpnZ5Cil1vbVrSWlnmC-161" style="edgeStyle=orthogonalEdgeStyle;rounded=0;orthogonalLoop=1;jettySize=auto;html=1;entryX=0;entryY=0.25;entryDx=0;entryDy=0;exitX=1;exitY=0.25;exitDx=0;exitDy=0;" parent="1" source="edpnZ5Cil1vbVrSWlnmC-154" target="edpnZ5Cil1vbVrSWlnmC-162" edge="1">
          <mxGeometry relative="1" as="geometry">
            <mxPoint x="1000" y="160" as="targetPoint" />
          </mxGeometry>
        </mxCell>
        <mxCell id="edpnZ5Cil1vbVrSWlnmC-154" value="ToTTL" style="rounded=0;whiteSpace=wrap;html=1;fontFamily=Sarasa Fixed SC;fontStyle=1" parent="1" vertex="1">
          <mxGeometry x="800" y="120" width="80" height="80" as="geometry" />
        </mxCell>
        <mxCell id="edpnZ5Cil1vbVrSWlnmC-156" style="edgeStyle=orthogonalEdgeStyle;rounded=0;orthogonalLoop=1;jettySize=auto;html=1;entryX=0;entryY=0.75;entryDx=0;entryDy=0;fontFamily=Sarasa Fixed SC;fontStyle=1" parent="1" target="edpnZ5Cil1vbVrSWlnmC-154" edge="1">
          <mxGeometry relative="1" as="geometry">
            <mxPoint x="790" y="180" as="targetPoint" />
            <mxPoint x="710" y="180" as="sourcePoint" />
            <Array as="points">
              <mxPoint x="750" y="180" />
              <mxPoint x="750" y="180" />
            </Array>
          </mxGeometry>
        </mxCell>
        <mxCell id="edpnZ5Cil1vbVrSWlnmC-157" value="" style="endArrow=none;html=1;rounded=0;" parent="1" edge="1">
          <mxGeometry width="50" height="50" relative="1" as="geometry">
            <mxPoint x="910" y="210" as="sourcePoint" />
            <mxPoint x="890" y="210" as="targetPoint" />
          </mxGeometry>
        </mxCell>
        <mxCell id="edpnZ5Cil1vbVrSWlnmC-158" value="" style="endArrow=none;html=1;rounded=0;" parent="1" edge="1">
          <mxGeometry width="50" height="50" relative="1" as="geometry">
            <mxPoint x="905" y="215" as="sourcePoint" />
            <mxPoint x="895" y="215" as="targetPoint" />
          </mxGeometry>
        </mxCell>
        <mxCell id="edpnZ5Cil1vbVrSWlnmC-159" value="" style="endArrow=none;html=1;rounded=0;" parent="1" edge="1">
          <mxGeometry width="50" height="50" relative="1" as="geometry">
            <mxPoint x="902" y="220" as="sourcePoint" />
            <mxPoint x="898" y="220" as="targetPoint" />
          </mxGeometry>
        </mxCell>
        <mxCell id="edpnZ5Cil1vbVrSWlnmC-160" value="" style="endArrow=none;html=1;rounded=0;exitX=1;exitY=0.75;exitDx=0;exitDy=0;" parent="1" source="edpnZ5Cil1vbVrSWlnmC-154" edge="1">
          <mxGeometry width="50" height="50" relative="1" as="geometry">
            <mxPoint x="920" y="210" as="sourcePoint" />
            <mxPoint x="900" y="210" as="targetPoint" />
            <Array as="points">
              <mxPoint x="900" y="180" />
            </Array>
          </mxGeometry>
        </mxCell>
        <mxCell id="edpnZ5Cil1vbVrSWlnmC-162" value="MCU" style="rounded=0;whiteSpace=wrap;html=1;fontFamily=Sarasa Fixed SC;fontStyle=1" parent="1" vertex="1">
          <mxGeometry x="960" y="120" width="80" height="80" as="geometry" />
        </mxCell>
        <mxCell id="edpnZ5Cil1vbVrSWlnmC-164" value="" style="endArrow=none;html=1;rounded=0;" parent="1" edge="1">
          <mxGeometry width="50" height="50" relative="1" as="geometry">
            <mxPoint x="950" y="210" as="sourcePoint" />
            <mxPoint x="930" y="210" as="targetPoint" />
          </mxGeometry>
        </mxCell>
        <mxCell id="edpnZ5Cil1vbVrSWlnmC-165" value="" style="endArrow=none;html=1;rounded=0;" parent="1" edge="1">
          <mxGeometry width="50" height="50" relative="1" as="geometry">
            <mxPoint x="945" y="215" as="sourcePoint" />
            <mxPoint x="935" y="215" as="targetPoint" />
          </mxGeometry>
        </mxCell>
        <mxCell id="edpnZ5Cil1vbVrSWlnmC-166" value="" style="endArrow=none;html=1;rounded=0;" parent="1" edge="1">
          <mxGeometry width="50" height="50" relative="1" as="geometry">
            <mxPoint x="942" y="220" as="sourcePoint" />
            <mxPoint x="938" y="220" as="targetPoint" />
          </mxGeometry>
        </mxCell>
        <mxCell id="edpnZ5Cil1vbVrSWlnmC-167" value="" style="endArrow=none;html=1;rounded=0;exitX=0;exitY=0.75;exitDx=0;exitDy=0;" parent="1" source="edpnZ5Cil1vbVrSWlnmC-162" edge="1">
          <mxGeometry width="50" height="50" relative="1" as="geometry">
            <mxPoint x="920" y="180" as="sourcePoint" />
            <mxPoint x="940" y="210" as="targetPoint" />
            <Array as="points">
              <mxPoint x="940" y="180" />
            </Array>
          </mxGeometry>
        </mxCell>
        <mxCell id="edpnZ5Cil1vbVrSWlnmC-173" style="edgeStyle=orthogonalEdgeStyle;rounded=0;orthogonalLoop=1;jettySize=auto;html=1;endArrow=none;endFill=0;" parent="1" source="edpnZ5Cil1vbVrSWlnmC-168" edge="1">
          <mxGeometry relative="1" as="geometry">
            <mxPoint x="600" y="140" as="targetPoint" />
          </mxGeometry>
        </mxCell>
        <mxCell id="edpnZ5Cil1vbVrSWlnmC-168" value="" style="rounded=0;whiteSpace=wrap;html=1;fontFamily=Sarasa Fixed SC;fontStyle=1" parent="1" vertex="1">
          <mxGeometry x="595" y="60" width="10" height="40" as="geometry" />
        </mxCell>
        <mxCell id="edpnZ5Cil1vbVrSWlnmC-169" value="" style="endArrow=none;html=1;rounded=0;" parent="1" edge="1">
          <mxGeometry width="50" height="50" relative="1" as="geometry">
            <mxPoint x="610" y="20" as="sourcePoint" />
            <mxPoint x="590" y="20" as="targetPoint" />
          </mxGeometry>
        </mxCell>
        <mxCell id="edpnZ5Cil1vbVrSWlnmC-172" value="" style="endArrow=none;html=1;rounded=0;" parent="1" edge="1">
          <mxGeometry width="50" height="50" relative="1" as="geometry">
            <mxPoint x="600" y="60" as="sourcePoint" />
            <mxPoint x="600" y="20" as="targetPoint" />
            <Array as="points" />
          </mxGeometry>
        </mxCell>
        <mxCell id="edpnZ5Cil1vbVrSWlnmC-178" style="edgeStyle=orthogonalEdgeStyle;rounded=0;orthogonalLoop=1;jettySize=auto;html=1;endArrow=none;endFill=0;" parent="1" source="edpnZ5Cil1vbVrSWlnmC-179" edge="1">
          <mxGeometry relative="1" as="geometry">
            <mxPoint x="640" y="180" as="targetPoint" />
          </mxGeometry>
        </mxCell>
        <mxCell id="edpnZ5Cil1vbVrSWlnmC-179" value="" style="rounded=0;whiteSpace=wrap;html=1;fontFamily=Sarasa Fixed SC;fontStyle=1" parent="1" vertex="1">
          <mxGeometry x="635" y="60" width="10" height="40" as="geometry" />
        </mxCell>
        <mxCell id="edpnZ5Cil1vbVrSWlnmC-181" value="" style="endArrow=none;html=1;rounded=0;" parent="1" edge="1">
          <mxGeometry width="50" height="50" relative="1" as="geometry">
            <mxPoint x="640" y="60" as="sourcePoint" />
            <mxPoint x="640" y="20" as="targetPoint" />
            <Array as="points" />
          </mxGeometry>
        </mxCell>
        <mxCell id="edpnZ5Cil1vbVrSWlnmC-182" value="" style="endArrow=none;html=1;rounded=0;" parent="1" edge="1">
          <mxGeometry width="50" height="50" relative="1" as="geometry">
            <mxPoint x="650" y="20" as="sourcePoint" />
            <mxPoint x="630" y="20" as="targetPoint" />
          </mxGeometry>
        </mxCell>
        <mxCell id="edpnZ5Cil1vbVrSWlnmC-183" value="" style="endArrow=none;html=1;rounded=0;" parent="1" edge="1">
          <mxGeometry width="50" height="50" relative="1" as="geometry">
            <mxPoint x="645" y="15" as="sourcePoint" />
            <mxPoint x="635" y="15" as="targetPoint" />
          </mxGeometry>
        </mxCell>
        <mxCell id="edpnZ5Cil1vbVrSWlnmC-184" value="" style="endArrow=none;html=1;rounded=0;" parent="1" edge="1">
          <mxGeometry width="50" height="50" relative="1" as="geometry">
            <mxPoint x="642" y="10" as="sourcePoint" />
            <mxPoint x="638" y="10" as="targetPoint" />
          </mxGeometry>
        </mxCell>
        <mxCell id="edpnZ5Cil1vbVrSWlnmC-185" style="edgeStyle=orthogonalEdgeStyle;rounded=0;orthogonalLoop=1;jettySize=auto;html=1;endArrow=classic;endFill=1;entryX=0.25;entryY=1;entryDx=0;entryDy=0;" parent="1" target="edpnZ5Cil1vbVrSWlnmC-162" edge="1">
          <mxGeometry relative="1" as="geometry">
            <mxPoint x="970" y="240" as="targetPoint" />
            <mxPoint x="640" y="180" as="sourcePoint" />
            <Array as="points">
              <mxPoint x="640" y="230" />
              <mxPoint x="980" y="230" />
            </Array>
          </mxGeometry>
        </mxCell>
        <mxCell id="edpnZ5Cil1vbVrSWlnmC-186" value="" style="ellipse;whiteSpace=wrap;html=1;aspect=fixed;fontFamily=Sarasa Fixed SC;fontStyle=1;fillColor=#000000;" parent="1" vertex="1">
          <mxGeometry x="638" y="178" width="4" height="4" as="geometry" />
        </mxCell>
        <mxCell id="edpnZ5Cil1vbVrSWlnmC-187" value="" style="ellipse;whiteSpace=wrap;html=1;aspect=fixed;fontFamily=Sarasa Fixed SC;fontStyle=1;fillColor=#000000;" parent="1" vertex="1">
          <mxGeometry x="598" y="138" width="4" height="4" as="geometry" />
        </mxCell>
        <mxCell id="edpnZ5Cil1vbVrSWlnmC-188" value="" style="endArrow=none;html=1;rounded=0;entryX=0;entryY=0.5;entryDx=0;entryDy=0;exitX=1;exitY=0.3333333333333333;exitDx=0;exitDy=0;fontFamily=Sarasa Fixed SC;fontStyle=1;exitPerimeter=0;" parent="1" source="edpnZ5Cil1vbVrSWlnmC-153" edge="1">
          <mxGeometry width="50" height="50" relative="1" as="geometry">
            <mxPoint x="330" y="260" as="sourcePoint" />
            <mxPoint x="540" y="160" as="targetPoint" />
          </mxGeometry>
        </mxCell>
        <mxCell id="edpnZ5Cil1vbVrSWlnmC-189" value="" style="endArrow=none;html=1;rounded=0;fontFamily=Sarasa Fixed SC;fontStyle=1" parent="1" edge="1">
          <mxGeometry width="50" height="50" relative="1" as="geometry">
            <mxPoint x="290" y="270" as="sourcePoint" />
            <mxPoint x="300" y="270" as="targetPoint" />
          </mxGeometry>
        </mxCell>
        <mxCell id="edpnZ5Cil1vbVrSWlnmC-190" value="" style="endArrow=none;html=1;rounded=0;fontFamily=Sarasa Fixed SC;fontStyle=1" parent="1" edge="1">
          <mxGeometry width="50" height="50" relative="1" as="geometry">
            <mxPoint x="310" y="300" as="sourcePoint" />
            <mxPoint x="300" y="300" as="targetPoint" />
          </mxGeometry>
        </mxCell>
        <mxCell id="edpnZ5Cil1vbVrSWlnmC-191" value="" style="endArrow=none;html=1;rounded=0;fontFamily=Sarasa Fixed SC;fontStyle=1" parent="1" edge="1">
          <mxGeometry width="50" height="50" relative="1" as="geometry">
            <mxPoint x="300" y="270" as="sourcePoint" />
            <mxPoint x="300" y="300" as="targetPoint" />
          </mxGeometry>
        </mxCell>
        <mxCell id="edpnZ5Cil1vbVrSWlnmC-192" value="" style="endArrow=none;html=1;rounded=0;fontFamily=Sarasa Fixed SC;fontStyle=1" parent="1" edge="1">
          <mxGeometry width="50" height="50" relative="1" as="geometry">
            <mxPoint x="290" y="270" as="sourcePoint" />
            <mxPoint x="290" y="300" as="targetPoint" />
          </mxGeometry>
        </mxCell>
        <mxCell id="edpnZ5Cil1vbVrSWlnmC-193" value="" style="endArrow=none;html=1;rounded=0;fontFamily=Sarasa Fixed SC;fontStyle=1" parent="1" edge="1">
          <mxGeometry width="50" height="50" relative="1" as="geometry">
            <mxPoint x="560" y="300" as="sourcePoint" />
            <mxPoint x="570" y="300" as="targetPoint" />
          </mxGeometry>
        </mxCell>
        <mxCell id="edpnZ5Cil1vbVrSWlnmC-194" value="" style="endArrow=none;html=1;rounded=0;fontFamily=Sarasa Fixed SC;fontStyle=1" parent="1" edge="1">
          <mxGeometry width="50" height="50" relative="1" as="geometry">
            <mxPoint x="570" y="270" as="sourcePoint" />
            <mxPoint x="580" y="270" as="targetPoint" />
          </mxGeometry>
        </mxCell>
        <mxCell id="edpnZ5Cil1vbVrSWlnmC-195" value="" style="endArrow=none;html=1;rounded=0;fontFamily=Sarasa Fixed SC;fontStyle=1" parent="1" edge="1">
          <mxGeometry width="50" height="50" relative="1" as="geometry">
            <mxPoint x="590" y="300" as="sourcePoint" />
            <mxPoint x="580" y="300" as="targetPoint" />
          </mxGeometry>
        </mxCell>
        <mxCell id="edpnZ5Cil1vbVrSWlnmC-196" value="" style="endArrow=none;html=1;rounded=0;fontFamily=Sarasa Fixed SC;fontStyle=1" parent="1" edge="1">
          <mxGeometry width="50" height="50" relative="1" as="geometry">
            <mxPoint x="580" y="270" as="sourcePoint" />
            <mxPoint x="580" y="300" as="targetPoint" />
          </mxGeometry>
        </mxCell>
        <mxCell id="edpnZ5Cil1vbVrSWlnmC-197" value="" style="endArrow=none;html=1;rounded=0;fontFamily=Sarasa Fixed SC;fontStyle=1" parent="1" edge="1">
          <mxGeometry width="50" height="50" relative="1" as="geometry">
            <mxPoint x="570" y="270" as="sourcePoint" />
            <mxPoint x="570" y="300" as="targetPoint" />
          </mxGeometry>
        </mxCell>
        <mxCell id="edpnZ5Cil1vbVrSWlnmC-198" value="" style="endArrow=none;html=1;rounded=0;fontFamily=Sarasa Fixed SC;fontStyle=1" parent="1" edge="1">
          <mxGeometry width="50" height="50" relative="1" as="geometry">
            <mxPoint x="590" y="270" as="sourcePoint" />
            <mxPoint x="600" y="270" as="targetPoint" />
          </mxGeometry>
        </mxCell>
        <mxCell id="edpnZ5Cil1vbVrSWlnmC-199" value="" style="endArrow=none;html=1;rounded=0;fontFamily=Sarasa Fixed SC;fontStyle=1" parent="1" edge="1">
          <mxGeometry width="50" height="50" relative="1" as="geometry">
            <mxPoint x="610" y="300" as="sourcePoint" />
            <mxPoint x="600" y="300" as="targetPoint" />
          </mxGeometry>
        </mxCell>
        <mxCell id="edpnZ5Cil1vbVrSWlnmC-200" value="" style="endArrow=none;html=1;rounded=0;fontFamily=Sarasa Fixed SC;fontStyle=1" parent="1" edge="1">
          <mxGeometry width="50" height="50" relative="1" as="geometry">
            <mxPoint x="600" y="270" as="sourcePoint" />
            <mxPoint x="600" y="300" as="targetPoint" />
          </mxGeometry>
        </mxCell>
        <mxCell id="edpnZ5Cil1vbVrSWlnmC-201" value="" style="endArrow=none;html=1;rounded=0;fontFamily=Sarasa Fixed SC;fontStyle=1" parent="1" edge="1">
          <mxGeometry width="50" height="50" relative="1" as="geometry">
            <mxPoint x="590" y="270" as="sourcePoint" />
            <mxPoint x="590" y="300" as="targetPoint" />
          </mxGeometry>
        </mxCell>
        <mxCell id="edpnZ5Cil1vbVrSWlnmC-202" value="" style="endArrow=none;html=1;rounded=0;fontFamily=Sarasa Fixed SC;fontStyle=1" parent="1" edge="1">
          <mxGeometry width="50" height="50" relative="1" as="geometry">
            <mxPoint x="610" y="270" as="sourcePoint" />
            <mxPoint x="620" y="270" as="targetPoint" />
          </mxGeometry>
        </mxCell>
        <mxCell id="edpnZ5Cil1vbVrSWlnmC-203" value="" style="endArrow=none;html=1;rounded=0;fontFamily=Sarasa Fixed SC;fontStyle=1" parent="1" edge="1">
          <mxGeometry width="50" height="50" relative="1" as="geometry">
            <mxPoint x="630" y="300" as="sourcePoint" />
            <mxPoint x="620" y="300" as="targetPoint" />
          </mxGeometry>
        </mxCell>
        <mxCell id="edpnZ5Cil1vbVrSWlnmC-204" value="" style="endArrow=none;html=1;rounded=0;fontFamily=Sarasa Fixed SC;fontStyle=1" parent="1" edge="1">
          <mxGeometry width="50" height="50" relative="1" as="geometry">
            <mxPoint x="620" y="270" as="sourcePoint" />
            <mxPoint x="620" y="300" as="targetPoint" />
          </mxGeometry>
        </mxCell>
        <mxCell id="edpnZ5Cil1vbVrSWlnmC-205" value="" style="endArrow=none;html=1;rounded=0;fontFamily=Sarasa Fixed SC;fontStyle=1" parent="1" edge="1">
          <mxGeometry width="50" height="50" relative="1" as="geometry">
            <mxPoint x="610" y="270" as="sourcePoint" />
            <mxPoint x="610" y="300" as="targetPoint" />
          </mxGeometry>
        </mxCell>
        <mxCell id="edpnZ5Cil1vbVrSWlnmC-206" value="" style="endArrow=none;html=1;rounded=0;fontFamily=Sarasa Fixed SC;fontStyle=1" parent="1" edge="1">
          <mxGeometry width="50" height="50" relative="1" as="geometry">
            <mxPoint x="630" y="270" as="sourcePoint" />
            <mxPoint x="640" y="270" as="targetPoint" />
          </mxGeometry>
        </mxCell>
        <mxCell id="edpnZ5Cil1vbVrSWlnmC-207" value="" style="endArrow=none;html=1;rounded=0;fontFamily=Sarasa Fixed SC;fontStyle=1" parent="1" edge="1">
          <mxGeometry width="50" height="50" relative="1" as="geometry">
            <mxPoint x="650" y="300" as="sourcePoint" />
            <mxPoint x="640" y="300" as="targetPoint" />
          </mxGeometry>
        </mxCell>
        <mxCell id="edpnZ5Cil1vbVrSWlnmC-208" value="" style="endArrow=none;html=1;rounded=0;fontFamily=Sarasa Fixed SC;fontStyle=1" parent="1" edge="1">
          <mxGeometry width="50" height="50" relative="1" as="geometry">
            <mxPoint x="640" y="270" as="sourcePoint" />
            <mxPoint x="640" y="300" as="targetPoint" />
          </mxGeometry>
        </mxCell>
        <mxCell id="edpnZ5Cil1vbVrSWlnmC-209" value="" style="endArrow=none;html=1;rounded=0;fontFamily=Sarasa Fixed SC;fontStyle=1" parent="1" edge="1">
          <mxGeometry width="50" height="50" relative="1" as="geometry">
            <mxPoint x="630" y="270" as="sourcePoint" />
            <mxPoint x="630" y="300" as="targetPoint" />
          </mxGeometry>
        </mxCell>
        <mxCell id="edpnZ5Cil1vbVrSWlnmC-210" value="" style="endArrow=none;html=1;rounded=0;fontFamily=Sarasa Fixed SC;fontStyle=1" parent="1" edge="1">
          <mxGeometry width="50" height="50" relative="1" as="geometry">
            <mxPoint x="650" y="270" as="sourcePoint" />
            <mxPoint x="660" y="270" as="targetPoint" />
          </mxGeometry>
        </mxCell>
        <mxCell id="edpnZ5Cil1vbVrSWlnmC-211" value="" style="endArrow=none;html=1;rounded=0;fontFamily=Sarasa Fixed SC;fontStyle=1" parent="1" edge="1">
          <mxGeometry width="50" height="50" relative="1" as="geometry">
            <mxPoint x="670" y="300" as="sourcePoint" />
            <mxPoint x="660" y="300" as="targetPoint" />
          </mxGeometry>
        </mxCell>
        <mxCell id="edpnZ5Cil1vbVrSWlnmC-212" value="" style="endArrow=none;html=1;rounded=0;fontFamily=Sarasa Fixed SC;fontStyle=1" parent="1" edge="1">
          <mxGeometry width="50" height="50" relative="1" as="geometry">
            <mxPoint x="660" y="270" as="sourcePoint" />
            <mxPoint x="660" y="300" as="targetPoint" />
          </mxGeometry>
        </mxCell>
        <mxCell id="edpnZ5Cil1vbVrSWlnmC-213" value="" style="endArrow=none;html=1;rounded=0;fontFamily=Sarasa Fixed SC;fontStyle=1" parent="1" edge="1">
          <mxGeometry width="50" height="50" relative="1" as="geometry">
            <mxPoint x="650" y="270" as="sourcePoint" />
            <mxPoint x="650" y="300" as="targetPoint" />
          </mxGeometry>
        </mxCell>
        <mxCell id="edpnZ5Cil1vbVrSWlnmC-214" value="" style="endArrow=none;html=1;rounded=0;fontFamily=Sarasa Fixed SC;fontStyle=1" parent="1" edge="1">
          <mxGeometry width="50" height="50" relative="1" as="geometry">
            <mxPoint x="670" y="270" as="sourcePoint" />
            <mxPoint x="680" y="270" as="targetPoint" />
          </mxGeometry>
        </mxCell>
        <mxCell id="edpnZ5Cil1vbVrSWlnmC-215" value="" style="endArrow=none;html=1;rounded=0;fontFamily=Sarasa Fixed SC;fontStyle=1" parent="1" edge="1">
          <mxGeometry width="50" height="50" relative="1" as="geometry">
            <mxPoint x="690" y="300" as="sourcePoint" />
            <mxPoint x="680" y="300" as="targetPoint" />
          </mxGeometry>
        </mxCell>
        <mxCell id="edpnZ5Cil1vbVrSWlnmC-216" value="" style="endArrow=none;html=1;rounded=0;fontFamily=Sarasa Fixed SC;fontStyle=1" parent="1" edge="1">
          <mxGeometry width="50" height="50" relative="1" as="geometry">
            <mxPoint x="680" y="270" as="sourcePoint" />
            <mxPoint x="680" y="300" as="targetPoint" />
          </mxGeometry>
        </mxCell>
        <mxCell id="edpnZ5Cil1vbVrSWlnmC-217" value="" style="endArrow=none;html=1;rounded=0;fontFamily=Sarasa Fixed SC;fontStyle=1" parent="1" edge="1">
          <mxGeometry width="50" height="50" relative="1" as="geometry">
            <mxPoint x="670" y="270" as="sourcePoint" />
            <mxPoint x="670" y="300" as="targetPoint" />
          </mxGeometry>
        </mxCell>
        <mxCell id="edpnZ5Cil1vbVrSWlnmC-218" value="" style="endArrow=none;html=1;rounded=0;fontFamily=Sarasa Fixed SC;fontStyle=1" parent="1" edge="1">
          <mxGeometry width="50" height="50" relative="1" as="geometry">
            <mxPoint x="690" y="270" as="sourcePoint" />
            <mxPoint x="700" y="270" as="targetPoint" />
          </mxGeometry>
        </mxCell>
        <mxCell id="edpnZ5Cil1vbVrSWlnmC-219" value="" style="endArrow=none;html=1;rounded=0;fontFamily=Sarasa Fixed SC;fontStyle=1" parent="1" edge="1">
          <mxGeometry width="50" height="50" relative="1" as="geometry">
            <mxPoint x="710" y="300" as="sourcePoint" />
            <mxPoint x="700" y="300" as="targetPoint" />
          </mxGeometry>
        </mxCell>
        <mxCell id="edpnZ5Cil1vbVrSWlnmC-220" value="" style="endArrow=none;html=1;rounded=0;fontFamily=Sarasa Fixed SC;fontStyle=1" parent="1" edge="1">
          <mxGeometry width="50" height="50" relative="1" as="geometry">
            <mxPoint x="700" y="270" as="sourcePoint" />
            <mxPoint x="700" y="300" as="targetPoint" />
          </mxGeometry>
        </mxCell>
        <mxCell id="edpnZ5Cil1vbVrSWlnmC-221" value="" style="endArrow=none;html=1;rounded=0;fontFamily=Sarasa Fixed SC;fontStyle=1" parent="1" edge="1">
          <mxGeometry width="50" height="50" relative="1" as="geometry">
            <mxPoint x="690" y="270" as="sourcePoint" />
            <mxPoint x="690" y="300" as="targetPoint" />
          </mxGeometry>
        </mxCell>
      </root>
    </mxGraphModel>
  </diagram>
</mxfile>
